<mxfile host="Electron" agent="Mozilla/5.0 (Windows NT 10.0; Win64; x64) AppleWebKit/537.36 (KHTML, like Gecko) draw.io/27.0.5 Chrome/134.0.6998.205 Electron/35.3.0 Safari/537.36" version="27.0.5">
  <diagram name="Page-1" id="N7GJOwx_0UJr7HmeYPT0">
    <mxGraphModel dx="1917" dy="993" grid="1" gridSize="10" guides="1" tooltips="1" connect="1" arrows="1" fold="1" page="1" pageScale="1" pageWidth="827" pageHeight="1169" math="0" shadow="0">
      <root>
        <mxCell id="0" />
        <mxCell id="1" parent="0" />
        <mxCell id="TdEAwu_VjkMoZjEu2QRM-1" value="" style="rounded=0;whiteSpace=wrap;html=1;" parent="1" vertex="1">
          <mxGeometry width="810" height="810" as="geometry" />
        </mxCell>
        <mxCell id="TdEAwu_VjkMoZjEu2QRM-2" value="&lt;font style=&quot;font-size: 24px;&quot;&gt;Tour Planner App&lt;/font&gt;" style="text;html=1;align=center;verticalAlign=middle;whiteSpace=wrap;rounded=0;fontSize=20;fontStyle=1" parent="1" vertex="1">
          <mxGeometry x="312" y="10" width="203" height="30" as="geometry" />
        </mxCell>
        <mxCell id="TdEAwu_VjkMoZjEu2QRM-16" style="rounded=0;orthogonalLoop=1;jettySize=auto;html=1;exitX=0.5;exitY=0.5;exitDx=0;exitDy=0;exitPerimeter=0;entryX=0;entryY=0.5;entryDx=0;entryDy=0;endArrow=none;startFill=0;" parent="1" source="TdEAwu_VjkMoZjEu2QRM-3" target="TdEAwu_VjkMoZjEu2QRM-11" edge="1">
          <mxGeometry relative="1" as="geometry" />
        </mxCell>
        <mxCell id="TdEAwu_VjkMoZjEu2QRM-17" style="rounded=0;orthogonalLoop=1;jettySize=auto;html=1;exitX=0.5;exitY=0.5;exitDx=0;exitDy=0;exitPerimeter=0;entryX=0;entryY=0.5;entryDx=0;entryDy=0;endArrow=none;startFill=0;" parent="1" source="TdEAwu_VjkMoZjEu2QRM-3" target="TdEAwu_VjkMoZjEu2QRM-10" edge="1">
          <mxGeometry relative="1" as="geometry" />
        </mxCell>
        <mxCell id="TdEAwu_VjkMoZjEu2QRM-18" style="rounded=0;orthogonalLoop=1;jettySize=auto;html=1;exitX=0.5;exitY=0.5;exitDx=0;exitDy=0;exitPerimeter=0;entryX=0;entryY=0.5;entryDx=0;entryDy=0;endArrow=none;startFill=0;" parent="1" source="TdEAwu_VjkMoZjEu2QRM-3" target="TdEAwu_VjkMoZjEu2QRM-9" edge="1">
          <mxGeometry relative="1" as="geometry" />
        </mxCell>
        <mxCell id="TdEAwu_VjkMoZjEu2QRM-23" style="rounded=0;orthogonalLoop=1;jettySize=auto;html=1;exitX=0.5;exitY=0.5;exitDx=0;exitDy=0;exitPerimeter=0;entryX=0;entryY=0.5;entryDx=0;entryDy=0;endArrow=none;startFill=0;" parent="1" source="TdEAwu_VjkMoZjEu2QRM-3" target="TdEAwu_VjkMoZjEu2QRM-12" edge="1">
          <mxGeometry relative="1" as="geometry" />
        </mxCell>
        <mxCell id="TdEAwu_VjkMoZjEu2QRM-24" style="rounded=0;orthogonalLoop=1;jettySize=auto;html=1;exitX=0.5;exitY=0.5;exitDx=0;exitDy=0;exitPerimeter=0;entryX=0;entryY=0.5;entryDx=0;entryDy=0;endArrow=none;startFill=0;" parent="1" source="TdEAwu_VjkMoZjEu2QRM-3" target="TdEAwu_VjkMoZjEu2QRM-14" edge="1">
          <mxGeometry relative="1" as="geometry" />
        </mxCell>
        <mxCell id="TdEAwu_VjkMoZjEu2QRM-38" style="rounded=0;orthogonalLoop=1;jettySize=auto;html=1;exitX=0.5;exitY=0.5;exitDx=0;exitDy=0;exitPerimeter=0;entryX=0;entryY=0.5;entryDx=0;entryDy=0;endArrow=none;startFill=0;" parent="1" source="TdEAwu_VjkMoZjEu2QRM-3" target="TdEAwu_VjkMoZjEu2QRM-37" edge="1">
          <mxGeometry relative="1" as="geometry" />
        </mxCell>
        <mxCell id="TdEAwu_VjkMoZjEu2QRM-3" value="&lt;div&gt;&lt;span style=&quot;font-size: 15px;&quot;&gt;User&lt;/span&gt;&lt;/div&gt;" style="shape=umlActor;verticalLabelPosition=bottom;verticalAlign=top;html=1;outlineConnect=0;" parent="1" vertex="1">
          <mxGeometry x="-100" y="360" width="50" height="100" as="geometry" />
        </mxCell>
        <mxCell id="TdEAwu_VjkMoZjEu2QRM-21" style="rounded=0;orthogonalLoop=1;jettySize=auto;html=1;exitX=0.5;exitY=0.5;exitDx=0;exitDy=0;exitPerimeter=0;entryX=1;entryY=0.5;entryDx=0;entryDy=0;endArrow=none;startFill=0;" parent="1" source="TdEAwu_VjkMoZjEu2QRM-6" target="TdEAwu_VjkMoZjEu2QRM-9" edge="1">
          <mxGeometry relative="1" as="geometry" />
        </mxCell>
        <mxCell id="TdEAwu_VjkMoZjEu2QRM-25" style="rounded=0;orthogonalLoop=1;jettySize=auto;html=1;exitX=0.5;exitY=0.5;exitDx=0;exitDy=0;exitPerimeter=0;entryX=1;entryY=0.5;entryDx=0;entryDy=0;endArrow=none;startFill=0;" parent="1" source="TdEAwu_VjkMoZjEu2QRM-6" target="TdEAwu_VjkMoZjEu2QRM-14" edge="1">
          <mxGeometry relative="1" as="geometry" />
        </mxCell>
        <mxCell id="TdEAwu_VjkMoZjEu2QRM-6" value="&lt;div&gt;&lt;span style=&quot;font-size: 15px;&quot;&gt;openroute&lt;/span&gt;&lt;/div&gt;&lt;div&gt;&lt;span style=&quot;font-size: 15px;&quot;&gt;service&lt;/span&gt;&lt;/div&gt;&lt;div&gt;&lt;span style=&quot;font-size: 15px;&quot;&gt;&lt;br&gt;&lt;/span&gt;&lt;/div&gt;" style="shape=umlActor;verticalLabelPosition=bottom;verticalAlign=top;html=1;outlineConnect=0;" parent="1" vertex="1">
          <mxGeometry x="850" y="660" width="50" height="100" as="geometry" />
        </mxCell>
        <mxCell id="TdEAwu_VjkMoZjEu2QRM-55" style="rounded=0;orthogonalLoop=1;jettySize=auto;html=1;exitX=1;exitY=0;exitDx=0;exitDy=0;entryX=0;entryY=0.5;entryDx=0;entryDy=0;dashed=1;" parent="1" source="TdEAwu_VjkMoZjEu2QRM-9" target="TdEAwu_VjkMoZjEu2QRM-54" edge="1">
          <mxGeometry relative="1" as="geometry" />
        </mxCell>
        <mxCell id="TdEAwu_VjkMoZjEu2QRM-56" value="&lt;font style=&quot;font-size: 15px;&quot;&gt;&amp;lt;&amp;lt;include&amp;gt;&amp;gt;&lt;/font&gt;" style="edgeLabel;html=1;align=center;verticalAlign=middle;resizable=0;points=[];" parent="TdEAwu_VjkMoZjEu2QRM-55" vertex="1" connectable="0">
          <mxGeometry x="-0.0071" y="5" relative="1" as="geometry">
            <mxPoint y="-1" as="offset" />
          </mxGeometry>
        </mxCell>
        <mxCell id="TdEAwu_VjkMoZjEu2QRM-9" value="&lt;font style=&quot;font-size: 18px;&quot;&gt;&lt;b&gt;check fastets route for a Tour&lt;/b&gt;&lt;/font&gt;" style="ellipse;whiteSpace=wrap;html=1;" parent="1" vertex="1">
          <mxGeometry x="350" y="490" width="160" height="80" as="geometry" />
        </mxCell>
        <mxCell id="TdEAwu_VjkMoZjEu2QRM-48" style="rounded=0;orthogonalLoop=1;jettySize=auto;html=1;exitX=1;exitY=0;exitDx=0;exitDy=0;entryX=0;entryY=0;entryDx=0;entryDy=0;endArrow=classic;startFill=0;dashed=1;endFill=1;" parent="1" source="TdEAwu_VjkMoZjEu2QRM-10" target="TdEAwu_VjkMoZjEu2QRM-47" edge="1">
          <mxGeometry relative="1" as="geometry" />
        </mxCell>
        <mxCell id="TdEAwu_VjkMoZjEu2QRM-51" value="&lt;font style=&quot;font-size: 15px;&quot;&gt;&amp;lt;&amp;lt;include&amp;gt;&amp;gt;&lt;/font&gt;" style="edgeLabel;html=1;align=center;verticalAlign=middle;resizable=0;points=[];" parent="TdEAwu_VjkMoZjEu2QRM-48" vertex="1" connectable="0">
          <mxGeometry x="0.0496" y="3" relative="1" as="geometry">
            <mxPoint as="offset" />
          </mxGeometry>
        </mxCell>
        <mxCell id="TdEAwu_VjkMoZjEu2QRM-10" value="&lt;font style=&quot;font-size: 18px;&quot;&gt;&lt;b&gt;&lt;span style=&quot;font-size: 17px;&quot;&gt;delete Tours &amp;amp; Tour&amp;nbsp;&lt;/span&gt;Logs&lt;/b&gt;&lt;/font&gt;" style="ellipse;whiteSpace=wrap;html=1;" parent="1" vertex="1">
          <mxGeometry x="50" y="60" width="185" height="80" as="geometry" />
        </mxCell>
        <mxCell id="TdEAwu_VjkMoZjEu2QRM-27" style="rounded=0;orthogonalLoop=1;jettySize=auto;html=1;exitX=1;exitY=0.5;exitDx=0;exitDy=0;entryX=0;entryY=0.5;entryDx=0;entryDy=0;dashed=1;" parent="1" source="TdEAwu_VjkMoZjEu2QRM-11" target="TdEAwu_VjkMoZjEu2QRM-26" edge="1">
          <mxGeometry relative="1" as="geometry" />
        </mxCell>
        <mxCell id="TdEAwu_VjkMoZjEu2QRM-29" value="&lt;font style=&quot;font-size: 15px;&quot;&gt;&amp;lt;&amp;lt;include&amp;gt;&amp;gt;&lt;/font&gt;" style="edgeLabel;html=1;align=center;verticalAlign=middle;resizable=0;points=[];" parent="TdEAwu_VjkMoZjEu2QRM-27" vertex="1" connectable="0">
          <mxGeometry x="-0.0325" y="1" relative="1" as="geometry">
            <mxPoint as="offset" />
          </mxGeometry>
        </mxCell>
        <mxCell id="TdEAwu_VjkMoZjEu2QRM-49" style="rounded=0;orthogonalLoop=1;jettySize=auto;html=1;exitX=0.772;exitY=0.047;exitDx=0;exitDy=0;entryX=0;entryY=0.5;entryDx=0;entryDy=0;exitPerimeter=0;dashed=1;" parent="1" source="TdEAwu_VjkMoZjEu2QRM-11" target="TdEAwu_VjkMoZjEu2QRM-47" edge="1">
          <mxGeometry relative="1" as="geometry" />
        </mxCell>
        <mxCell id="TdEAwu_VjkMoZjEu2QRM-52" value="&lt;font style=&quot;font-size: 15px;&quot;&gt;&amp;lt;&amp;lt;include&amp;gt;&amp;gt;&lt;/font&gt;" style="edgeLabel;html=1;align=center;verticalAlign=middle;resizable=0;points=[];" parent="TdEAwu_VjkMoZjEu2QRM-49" vertex="1" connectable="0">
          <mxGeometry x="-0.0146" y="-4" relative="1" as="geometry">
            <mxPoint x="-69" y="21" as="offset" />
          </mxGeometry>
        </mxCell>
        <mxCell id="TdEAwu_VjkMoZjEu2QRM-11" value="&lt;font style=&quot;font-size: 18px;&quot;&gt;&lt;b&gt;create/edit Tours &amp;amp; Tour Logs&lt;/b&gt;&lt;/font&gt;" style="ellipse;whiteSpace=wrap;html=1;" parent="1" vertex="1">
          <mxGeometry x="25" y="190" width="190" height="80" as="geometry" />
        </mxCell>
        <mxCell id="TdEAwu_VjkMoZjEu2QRM-35" style="rounded=0;orthogonalLoop=1;jettySize=auto;html=1;exitX=1;exitY=0.5;exitDx=0;exitDy=0;entryX=0;entryY=0.5;entryDx=0;entryDy=0;dashed=1;" parent="1" source="TdEAwu_VjkMoZjEu2QRM-12" target="TdEAwu_VjkMoZjEu2QRM-31" edge="1">
          <mxGeometry relative="1" as="geometry" />
        </mxCell>
        <mxCell id="TdEAwu_VjkMoZjEu2QRM-36" value="&lt;font style=&quot;font-size: 15px;&quot;&gt;&amp;lt;&amp;lt;include&amp;gt;&amp;gt;&lt;/font&gt;" style="edgeLabel;html=1;align=center;verticalAlign=middle;resizable=0;points=[];" parent="TdEAwu_VjkMoZjEu2QRM-35" vertex="1" connectable="0">
          <mxGeometry x="-0.0788" y="-2" relative="1" as="geometry">
            <mxPoint as="offset" />
          </mxGeometry>
        </mxCell>
        <mxCell id="TdEAwu_VjkMoZjEu2QRM-12" value="&lt;font style=&quot;font-size: 18px;&quot;&gt;&lt;b&gt;export Tour data&lt;/b&gt;&lt;/font&gt;" style="ellipse;whiteSpace=wrap;html=1;" parent="1" vertex="1">
          <mxGeometry x="50" y="520" width="140" height="80" as="geometry" />
        </mxCell>
        <mxCell id="TdEAwu_VjkMoZjEu2QRM-33" style="rounded=0;orthogonalLoop=1;jettySize=auto;html=1;exitX=1;exitY=0;exitDx=0;exitDy=0;entryX=0;entryY=0.5;entryDx=0;entryDy=0;dashed=1;" parent="1" source="TdEAwu_VjkMoZjEu2QRM-14" target="TdEAwu_VjkMoZjEu2QRM-31" edge="1">
          <mxGeometry relative="1" as="geometry" />
        </mxCell>
        <mxCell id="TdEAwu_VjkMoZjEu2QRM-34" value="&lt;font style=&quot;font-size: 15px;&quot;&gt;&amp;lt;&amp;lt;include&amp;gt;&amp;gt;&lt;/font&gt;" style="edgeLabel;html=1;align=center;verticalAlign=middle;resizable=0;points=[];" parent="TdEAwu_VjkMoZjEu2QRM-33" vertex="1" connectable="0">
          <mxGeometry x="-0.0496" relative="1" as="geometry">
            <mxPoint x="-1" as="offset" />
          </mxGeometry>
        </mxCell>
        <mxCell id="TdEAwu_VjkMoZjEu2QRM-14" value="&lt;font style=&quot;font-size: 18px;&quot;&gt;&lt;b&gt;generate Tour Reports&lt;/b&gt;&lt;/font&gt;" style="ellipse;whiteSpace=wrap;html=1;" parent="1" vertex="1">
          <mxGeometry x="37.5" y="700" width="140" height="80" as="geometry" />
        </mxCell>
        <mxCell id="TdEAwu_VjkMoZjEu2QRM-26" value="&lt;font style=&quot;font-size: 18px;&quot;&gt;verify Tour/Tour Log data&lt;/font&gt;" style="ellipse;whiteSpace=wrap;html=1;" parent="1" vertex="1">
          <mxGeometry x="410" y="180" width="190" height="80" as="geometry" />
        </mxCell>
        <mxCell id="TdEAwu_VjkMoZjEu2QRM-31" value="&lt;font style=&quot;font-size: 18px;&quot;&gt;create File to store data&lt;/font&gt;" style="ellipse;whiteSpace=wrap;html=1;" parent="1" vertex="1">
          <mxGeometry x="360" y="600" width="130" height="85" as="geometry" />
        </mxCell>
        <mxCell id="TdEAwu_VjkMoZjEu2QRM-32" value="&lt;font style=&quot;font-size: 18px;&quot;&gt;read data from File&lt;/font&gt;" style="ellipse;whiteSpace=wrap;html=1;" parent="1" vertex="1">
          <mxGeometry x="264" y="390" width="150" height="80" as="geometry" />
        </mxCell>
        <mxCell id="TdEAwu_VjkMoZjEu2QRM-39" style="rounded=0;orthogonalLoop=1;jettySize=auto;html=1;exitX=1;exitY=0.5;exitDx=0;exitDy=0;entryX=0;entryY=0.5;entryDx=0;entryDy=0;dashed=1;" parent="1" source="TdEAwu_VjkMoZjEu2QRM-37" target="TdEAwu_VjkMoZjEu2QRM-32" edge="1">
          <mxGeometry relative="1" as="geometry" />
        </mxCell>
        <mxCell id="TdEAwu_VjkMoZjEu2QRM-40" value="&lt;font style=&quot;font-size: 15px;&quot;&gt;&amp;lt;&amp;lt;include&amp;gt;&amp;gt;&lt;/font&gt;" style="edgeLabel;html=1;align=center;verticalAlign=middle;resizable=0;points=[];" parent="TdEAwu_VjkMoZjEu2QRM-39" vertex="1" connectable="0">
          <mxGeometry x="0.0004" y="-4" relative="1" as="geometry">
            <mxPoint x="-1" as="offset" />
          </mxGeometry>
        </mxCell>
        <mxCell id="TdEAwu_VjkMoZjEu2QRM-50" style="edgeStyle=entityRelationEdgeStyle;rounded=0;orthogonalLoop=1;jettySize=auto;html=1;exitX=0.5;exitY=0;exitDx=0;exitDy=0;entryX=0.001;entryY=0.356;entryDx=0;entryDy=0;entryPerimeter=0;dashed=1;" parent="1" source="TdEAwu_VjkMoZjEu2QRM-37" target="TdEAwu_VjkMoZjEu2QRM-47" edge="1">
          <mxGeometry relative="1" as="geometry">
            <mxPoint x="380" y="100" as="targetPoint" />
            <Array as="points">
              <mxPoint x="200" y="190" />
            </Array>
          </mxGeometry>
        </mxCell>
        <mxCell id="TdEAwu_VjkMoZjEu2QRM-53" value="&lt;font style=&quot;font-size: 15px;&quot;&gt;&amp;lt;&amp;lt;include&amp;gt;&amp;gt;&lt;/font&gt;" style="edgeLabel;html=1;align=center;verticalAlign=middle;resizable=0;points=[];" parent="TdEAwu_VjkMoZjEu2QRM-50" vertex="1" connectable="0">
          <mxGeometry x="0.0244" y="4" relative="1" as="geometry">
            <mxPoint x="-101" y="111" as="offset" />
          </mxGeometry>
        </mxCell>
        <mxCell id="TdEAwu_VjkMoZjEu2QRM-37" value="&lt;font style=&quot;font-size: 18px;&quot;&gt;&lt;b&gt;import Tour data&lt;/b&gt;&lt;/font&gt;" style="ellipse;whiteSpace=wrap;html=1;" parent="1" vertex="1">
          <mxGeometry x="39" y="360" width="122" height="70" as="geometry" />
        </mxCell>
        <mxCell id="TdEAwu_VjkMoZjEu2QRM-42" style="rounded=0;orthogonalLoop=1;jettySize=auto;html=1;exitX=0;exitY=0.5;exitDx=0;exitDy=0;entryX=1;entryY=1;entryDx=0;entryDy=0;dashed=1;" parent="1" source="TdEAwu_VjkMoZjEu2QRM-41" target="TdEAwu_VjkMoZjEu2QRM-11" edge="1">
          <mxGeometry relative="1" as="geometry" />
        </mxCell>
        <mxCell id="TdEAwu_VjkMoZjEu2QRM-43" value="&lt;font style=&quot;font-size: 15px;&quot;&gt;&amp;lt;&amp;lt;extend&amp;gt;&amp;gt;&lt;/font&gt;" style="edgeLabel;html=1;align=center;verticalAlign=middle;resizable=0;points=[];" parent="TdEAwu_VjkMoZjEu2QRM-42" vertex="1" connectable="0">
          <mxGeometry x="0.0509" y="2" relative="1" as="geometry">
            <mxPoint as="offset" />
          </mxGeometry>
        </mxCell>
        <mxCell id="TdEAwu_VjkMoZjEu2QRM-44" style="rounded=0;orthogonalLoop=1;jettySize=auto;html=1;dashed=1;entryX=1;entryY=0;entryDx=0;entryDy=0;exitX=0;exitY=0.5;exitDx=0;exitDy=0;" parent="1" source="TdEAwu_VjkMoZjEu2QRM-41" target="TdEAwu_VjkMoZjEu2QRM-37" edge="1">
          <mxGeometry relative="1" as="geometry">
            <mxPoint x="560" y="310" as="sourcePoint" />
            <mxPoint x="150" y="280" as="targetPoint" />
          </mxGeometry>
        </mxCell>
        <mxCell id="TdEAwu_VjkMoZjEu2QRM-45" value="&lt;font style=&quot;font-size: 15px;&quot;&gt;&amp;lt;&amp;lt;extend&amp;gt;&amp;gt;&lt;/font&gt;" style="edgeLabel;html=1;align=center;verticalAlign=middle;resizable=0;points=[];" parent="TdEAwu_VjkMoZjEu2QRM-44" vertex="1" connectable="0">
          <mxGeometry x="0.0176" y="-7" relative="1" as="geometry">
            <mxPoint as="offset" />
          </mxGeometry>
        </mxCell>
        <mxCell id="TdEAwu_VjkMoZjEu2QRM-41" value="&lt;font style=&quot;font-size: 18px;&quot;&gt;display error&lt;/font&gt;" style="ellipse;whiteSpace=wrap;html=1;" parent="1" vertex="1">
          <mxGeometry x="530" y="290" width="120" height="80" as="geometry" />
        </mxCell>
        <mxCell id="TdEAwu_VjkMoZjEu2QRM-47" value="&lt;font style=&quot;font-size: 18px;&quot;&gt;manipulate database entries&lt;/font&gt;" style="ellipse;whiteSpace=wrap;html=1;" parent="1" vertex="1">
          <mxGeometry x="385" y="60" width="165" height="90" as="geometry" />
        </mxCell>
        <mxCell id="TdEAwu_VjkMoZjEu2QRM-54" value="&lt;font style=&quot;font-size: 18px;&quot;&gt;request results from external API&lt;/font&gt;" style="ellipse;whiteSpace=wrap;html=1;" parent="1" vertex="1">
          <mxGeometry x="620" y="425" width="160" height="80" as="geometry" />
        </mxCell>
        <mxCell id="TdEAwu_VjkMoZjEu2QRM-58" style="rounded=0;orthogonalLoop=1;jettySize=auto;html=1;exitX=0;exitY=1;exitDx=0;exitDy=0;entryX=0.572;entryY=0.01;entryDx=0;entryDy=0;entryPerimeter=0;dashed=1;" parent="1" source="TdEAwu_VjkMoZjEu2QRM-41" target="TdEAwu_VjkMoZjEu2QRM-9" edge="1">
          <mxGeometry relative="1" as="geometry" />
        </mxCell>
        <mxCell id="TdEAwu_VjkMoZjEu2QRM-59" value="&lt;font style=&quot;font-size: 15px;&quot;&gt;&amp;lt;&amp;lt;extend&amp;gt;&amp;gt;&lt;/font&gt;" style="edgeLabel;html=1;align=center;verticalAlign=middle;resizable=0;points=[];" parent="TdEAwu_VjkMoZjEu2QRM-58" vertex="1" connectable="0">
          <mxGeometry x="0.0084" y="2" relative="1" as="geometry">
            <mxPoint y="1" as="offset" />
          </mxGeometry>
        </mxCell>
      </root>
    </mxGraphModel>
  </diagram>
</mxfile>
